<svg width="124" height="124" viewBox="0 0 124 124" fill="none" xmlns="http://www.w3.org/2000/svg">
<g filter="url(#filter0_d_1_47799)">
<rect x="37.3334" y="37.4431" width="50" height="50" rx="12" fill="#89C2C7"/>
<g clip-path="url(#clip0_1_47799)">
<path d="M72.1434 54.3832C70.6034 58.2232 66.7434 63.4432 63.5134 66.0332L61.5434 67.6132C61.2934 67.7932 61.0434 67.9532 60.7634 68.0632C60.7634 67.8832 60.7534 67.6832 60.7234 67.4932C60.6134 66.6532 60.2334 65.8732 59.5634 65.2032C58.8834 64.5232 58.0534 64.1232 57.2034 64.0132C57.0034 64.0032 56.8034 63.9832 56.6034 64.0032C56.7134 63.6932 56.8834 63.4032 57.0934 63.1632L58.6534 61.1932C61.2334 57.9632 66.4734 54.0832 70.3034 52.5532C70.8934 52.3332 71.4634 52.4932 71.8234 52.8632C72.2034 53.2332 72.3834 53.8032 72.1434 54.3832Z" stroke="#0F1624" stroke-width="1.5" stroke-linecap="round" stroke-linejoin="round"/>
<path d="M60.7634 68.0632C60.7634 69.1632 60.3434 70.2132 59.5534 71.0132C58.9434 71.6232 58.1134 72.0432 57.1234 72.1732L54.6634 72.4432C53.3234 72.5932 52.1734 71.4532 52.3334 70.0932L52.6034 67.6332C52.8434 65.4432 54.6734 64.0432 56.6134 64.0032C56.8134 63.9932 57.0234 64.0032 57.2134 64.0132C58.0634 64.1232 58.8934 64.5132 59.5734 65.2032C60.2434 65.8732 60.6234 66.6532 60.7334 67.4932C60.7434 67.6832 60.7634 67.8732 60.7634 68.0632Z" stroke="#0F1624" stroke-width="1.5" stroke-linecap="round" stroke-linejoin="round"/>
<path d="M64.5734 64.9131C64.5734 62.3031 62.4534 60.1831 59.8434 60.1831" stroke="#0F1624" stroke-width="1.5" stroke-linecap="round" stroke-linejoin="round"/>
<path d="M70.4533 63.1731L71.1933 63.9031C72.6833 65.3931 72.6833 66.8631 71.1933 68.3531L68.2333 71.3131C66.7633 72.7831 65.2733 72.7831 63.8033 71.3131" stroke="#0F1624" stroke-width="1.5" stroke-linecap="round"/>
<path d="M53.4433 60.9532C51.9733 59.4632 51.9733 57.9932 53.4433 56.5032L56.4033 53.5432C57.8733 52.0732 59.3633 52.0732 60.8333 53.5432L61.5733 54.2832" stroke="#111111" stroke-width="1.5" stroke-linecap="round"/>
<path d="M61.5834 54.2932L57.8834 57.9932" stroke="#111111" stroke-width="1.5" stroke-linecap="round"/>
<path d="M70.4534 63.1731L67.4934 66.1231" stroke="#111111" stroke-width="1.5" stroke-linecap="round"/>
</g>
</g>
<defs>
<filter id="filter0_d_1_47799" x="0.878708" y="0.988449" width="122.909" height="122.909" filterUnits="userSpaceOnUse" color-interpolation-filters="sRGB">
<feFlood flood-opacity="0" result="BackgroundImageFix"/>
<feColorMatrix in="SourceAlpha" type="matrix" values="0 0 0 0 0 0 0 0 0 0 0 0 0 0 0 0 0 0 127 0" result="hardAlpha"/>
<feOffset/>
<feGaussianBlur stdDeviation="18.2273"/>
<feColorMatrix type="matrix" values="0 0 0 0 0.698039 0 0 0 0 0.901961 0 0 0 0 0.929412 0 0 0 1 0"/>
<feBlend mode="normal" in2="BackgroundImageFix" result="effect1_dropShadow_1_47799"/>
<feBlend mode="normal" in="SourceGraphic" in2="effect1_dropShadow_1_47799" result="shape"/>
</filter>
<clipPath id="clip0_1_47799">
<rect width="24" height="24" fill="white" transform="translate(50.3334 50.4431)"/>
</clipPath>
</defs>
</svg>
