<svg width="124" height="124" viewBox="0 0 124 124" fill="none" xmlns="http://www.w3.org/2000/svg">
<g filter="url(#filter0_d_1_47806)">
<rect x="36.6665" y="37.4431" width="50" height="50" rx="12" fill="#89C2C7"/>
<path d="M69.6665 57.4431V67.4431C69.6665 71.4431 68.6665 72.4431 64.6665 72.4431H58.6665C54.6665 72.4431 53.6665 71.4431 53.6665 67.4431V57.4431C53.6665 53.4431 54.6665 52.4431 58.6665 52.4431H64.6665C68.6665 52.4431 69.6665 53.4431 69.6665 57.4431Z" stroke="#0F1624" stroke-width="1.5" stroke-linecap="round" stroke-linejoin="round"/>
<path d="M63.6665 55.9431H59.6665" stroke="#0F1624" stroke-width="1.5" stroke-linecap="round" stroke-linejoin="round"/>
<path d="M61.6665 69.5431C62.5225 69.5431 63.2165 68.8492 63.2165 67.9931C63.2165 67.1371 62.5225 66.4431 61.6665 66.4431C60.8104 66.4431 60.1165 67.1371 60.1165 67.9931C60.1165 68.8492 60.8104 69.5431 61.6665 69.5431Z" stroke="#0F1624" stroke-width="1.5" stroke-linecap="round" stroke-linejoin="round"/>
</g>
<defs>
<filter id="filter0_d_1_47806" x="0.211838" y="0.988449" width="122.909" height="122.909" filterUnits="userSpaceOnUse" color-interpolation-filters="sRGB">
<feFlood flood-opacity="0" result="BackgroundImageFix"/>
<feColorMatrix in="SourceAlpha" type="matrix" values="0 0 0 0 0 0 0 0 0 0 0 0 0 0 0 0 0 0 127 0" result="hardAlpha"/>
<feOffset/>
<feGaussianBlur stdDeviation="18.2273"/>
<feColorMatrix type="matrix" values="0 0 0 0 0.698039 0 0 0 0 0.901961 0 0 0 0 0.929412 0 0 0 1 0"/>
<feBlend mode="normal" in2="BackgroundImageFix" result="effect1_dropShadow_1_47806"/>
<feBlend mode="normal" in="SourceGraphic" in2="effect1_dropShadow_1_47806" result="shape"/>
</filter>
</defs>
</svg>
