<svg width="133" height="30" viewBox="0 0 133 30" fill="none" xmlns="http://www.w3.org/2000/svg">
<path d="M0.0907506 25.8681C0.0907506 25.369 0 15.341 0 15.341V12.9815C0 12.3916 0.544504 10.985 1.22513 10.259C1.79831 9.64761 6.41305 8.51962 6.4433 8.76162C5.49041 9.85063 4.58291 10.5766 4.2199 10.985C3.40877 11.8975 2.63177 12.5278 2.63177 13.1176C2.63177 16.4452 2.58639 23.6901 2.63177 24.9152C2.66552 25.8266 3.35777 26.4126 3.99303 26.5034C6.88192 26.5034 12.1152 26.703 12.6597 26.4126C13.3403 26.0496 21.273 17.9165 22.37 16.9292C23.2775 16.1124 22.9145 15.3926 22.5062 15.3864C16.5166 15.2957 13.3403 15.4318 11.9337 15.341C9.00125 15.1519 8.0573 11.5635 9.25657 10.259C11.843 7.44574 17.6886 1.75357 18.8761 0.684813C19.7836 -0.131942 22.338 -0.131942 23.2775 0.594063C24.0723 1.20822 26.2494 3.1929 27.0891 4.13334C28.2234 5.40385 34.3037 10.8943 34.3037 12.2555C34.3037 12.7442 34.3945 13.8437 34.3945 17.3829C34.3945 19.9239 34.4399 23.3725 34.4399 25.0967C34.4399 26.821 32.9425 28.3184 32.035 28.7721C31.1275 29.2259 29.2217 29.1805 29.2217 29.1805C29.2217 29.1805 30.1746 27.5016 30.7191 26.458C31.9442 25.8681 31.7627 24.9606 31.7627 24.3254C31.7627 22.8733 31.7174 18.1089 31.7174 16.3847C31.7174 16.3847 31.8011 12.9361 31.5812 12.5278C31.3613 12.1194 24.2758 5.22235 22.2793 3.08971C21.6836 2.4534 20.6911 2.5452 20.1013 3.08971C19.1181 4.11821 16.5439 6.88775 13.7033 9.48763C11.0262 11.9379 11.0716 12.4824 11.843 12.6185C12.6143 12.7546 13.2496 12.6908 14.1117 12.6908C17.1163 12.6653 22.2094 12.6309 22.9145 12.7093C24.9111 12.9311 26.6281 15.6587 25.0926 17.7913C24.2758 18.9257 20.4189 22.7372 17.0157 26.0042C15.1088 27.8349 13.8395 29.1805 12.8866 29.1805C9.9372 29.1805 4.08378 29.3711 2.99477 29.0444C1.27051 28.5271 0.0907506 26.3672 0.0907506 25.8681Z" fill="white"/>
<path d="M7.8046 7.44574L2.76794 8.67087L10.7086 0.73019C10.9627 0.476088 11.2985 0.231061 11.4346 0.140311C12.3119 0.0949354 14.139 0.00418472 14.4294 0.00418472C14.7198 0.00418472 14.7017 0.336937 14.6563 0.503313L7.8046 7.44574Z" fill="white"/>
<path d="M18.5132 28.8629C18.5132 28.7176 20.0257 27.2898 20.7819 26.5941L29.9024 26.5033L28.2235 29.1805H19.2846C19.0577 29.1805 18.5132 29.0444 18.5132 28.8629Z" fill="white"/>
<path d="M41.8317 20.62V9.78094H45.3817C46.5068 9.78094 47.4816 10.0089 48.3061 10.4647C49.1402 10.9109 49.7852 11.5414 50.2411 12.3561C50.697 13.1709 50.9249 14.1166 50.9249 15.1932C50.9249 16.2601 50.697 17.2058 50.2411 18.0303C49.7852 18.845 49.1402 19.4803 48.3061 19.9362C47.4816 20.3921 46.5068 20.62 45.3817 20.62H41.8317ZM43.5485 19.0923H45.4108C46.1771 19.0923 46.8415 18.9323 47.404 18.6122C47.9763 18.2921 48.4176 17.8411 48.728 17.2592C49.0384 16.6772 49.1936 15.9885 49.1936 15.1932C49.1936 14.3978 49.0335 13.714 48.7134 13.1418C48.4031 12.5598 47.9666 12.1088 47.404 11.7887C46.8415 11.4686 46.1771 11.3086 45.4108 11.3086H43.5485V19.0923ZM58.1589 20.7946C57.4799 20.7946 56.8495 20.6685 56.2675 20.4163C55.6855 20.1544 55.1909 19.8004 54.7835 19.3542C54.3761 18.9081 54.0754 18.394 53.8814 17.812L55.3363 17.201C55.5982 17.8702 55.9814 18.3843 56.4857 18.7432C56.9901 19.102 57.5721 19.2815 58.2316 19.2815C58.6196 19.2815 58.9591 19.2233 59.2501 19.1069C59.541 18.9808 59.7641 18.8062 59.9193 18.5831C60.0842 18.36 60.1666 18.103 60.1666 17.812C60.1666 17.4144 60.0551 17.0991 59.832 16.8663C59.6089 16.6336 59.2791 16.4493 58.8427 16.3135L56.8058 15.6733C55.9911 15.4211 55.3703 15.038 54.9435 14.5239C54.5167 14.0002 54.3034 13.3891 54.3034 12.6908C54.3034 12.0797 54.4537 11.5462 54.7544 11.0904C55.0551 10.6248 55.4673 10.2611 55.9911 9.99917C56.5245 9.73729 57.1307 9.60635 57.8097 9.60635C58.4596 9.60635 59.0512 9.72274 59.5847 9.95553C60.1181 10.1786 60.574 10.489 60.9523 10.8867C61.3403 11.2843 61.6216 11.7451 61.7961 12.2688L60.3703 12.8944C60.1569 12.3222 59.8223 11.8809 59.3664 11.5705C58.9203 11.2601 58.4014 11.1049 57.8097 11.1049C57.4508 11.1049 57.1356 11.1679 56.864 11.294C56.5924 11.4104 56.379 11.585 56.2238 11.8178C56.0784 12.0409 56.0056 12.3028 56.0056 12.6035C56.0056 12.9526 56.1171 13.263 56.3402 13.5346C56.5633 13.8062 56.9028 14.0099 57.3587 14.1457L59.2501 14.7422C60.1133 15.0041 60.7632 15.3823 61.1996 15.877C61.6361 16.362 61.8543 16.9682 61.8543 17.6956C61.8543 18.297 61.6943 18.8305 61.3742 19.296C61.0638 19.7616 60.6322 20.1302 60.0793 20.4018C59.5265 20.6636 58.8863 20.7946 58.1589 20.7946ZM64.4961 20.62L68.308 9.78094H70.4322L74.244 20.62H72.4108L71.5815 18.1903H67.1732L66.3293 20.62H64.4961ZM67.6678 16.6627H71.0578L69.1373 10.9885H69.6174L67.6678 16.6627ZM81.5649 20.62V9.78094H83.2817V14.553H88.3012V9.78094H90.0034V20.62H88.3012V16.0807H83.2817V20.62H81.5649ZM97.6326 20.7946C96.876 20.7946 96.1825 20.6152 95.5521 20.2563C94.9313 19.8974 94.4366 19.4076 94.068 18.7868C93.6995 18.1661 93.5152 17.4629 93.5152 16.6772C93.5152 15.8819 93.6995 15.1786 94.068 14.5676C94.4366 13.9468 94.9313 13.4619 95.5521 13.1127C96.1728 12.7538 96.8663 12.5744 97.6326 12.5744C98.4085 12.5744 99.102 12.7538 99.7131 13.1127C100.334 13.4619 100.824 13.9468 101.183 14.5676C101.551 15.1786 101.735 15.8819 101.735 16.6772C101.735 17.4726 101.551 18.1806 101.183 18.8014C100.814 19.4221 100.319 19.9119 99.6985 20.2708C99.0778 20.62 98.3891 20.7946 97.6326 20.7946ZM97.6326 19.2669C98.0981 19.2669 98.5104 19.1554 98.8692 18.9323C99.2281 18.7092 99.5094 18.4037 99.7131 18.0157C99.9265 17.618 100.033 17.1719 100.033 16.6772C100.033 16.1825 99.9265 15.7412 99.7131 15.3532C99.5094 14.9653 99.2281 14.6597 98.8692 14.4366C98.5104 14.2136 98.0981 14.102 97.6326 14.102C97.1767 14.102 96.7645 14.2136 96.3959 14.4366C96.037 14.6597 95.7509 14.9653 95.5375 15.3532C95.3338 15.7412 95.232 16.1825 95.232 16.6772C95.232 17.1719 95.3338 17.618 95.5375 18.0157C95.7509 18.4037 96.037 18.7092 96.3959 18.9323C96.7645 19.1554 97.1767 19.2669 97.6326 19.2669ZM107.894 20.7946C107.303 20.7946 106.784 20.6636 106.338 20.4018C105.891 20.1302 105.542 19.7568 105.29 19.2815C105.048 18.7965 104.926 18.2388 104.926 17.6083V12.7489H106.57V17.4629C106.57 17.8217 106.643 18.137 106.789 18.4085C106.934 18.6801 107.138 18.8935 107.4 19.0487C107.662 19.1942 107.962 19.2669 108.302 19.2669C108.651 19.2669 108.956 19.1893 109.218 19.0342C109.48 18.879 109.684 18.6607 109.829 18.3794C109.985 18.0982 110.062 17.7684 110.062 17.3901V12.7489H111.692V20.62H110.135V19.0778L110.309 19.2815C110.125 19.7665 109.82 20.1399 109.393 20.4018C108.966 20.6636 108.467 20.7946 107.894 20.7946ZM118.267 20.7946C117.462 20.7946 116.754 20.5958 116.143 20.1981C115.541 19.8004 115.119 19.2669 114.877 18.5977L116.143 18.0012C116.356 18.4473 116.647 18.8014 117.016 19.0633C117.394 19.3251 117.811 19.4561 118.267 19.4561C118.655 19.4561 118.97 19.3688 119.213 19.1942C119.455 19.0196 119.576 18.782 119.576 18.4813C119.576 18.2873 119.523 18.1321 119.416 18.0157C119.31 17.8896 119.174 17.7878 119.009 17.7102C118.854 17.6326 118.694 17.5744 118.529 17.5356L117.292 17.1864C116.613 16.9924 116.104 16.7015 115.764 16.3135C115.435 15.9158 115.27 15.4551 115.27 14.9313C115.27 14.456 115.391 14.0438 115.634 13.6946C115.876 13.3358 116.211 13.0593 116.637 12.8653C117.064 12.6714 117.544 12.5744 118.078 12.5744C118.796 12.5744 119.436 12.7538 119.998 13.1127C120.561 13.4619 120.959 13.9517 121.191 14.5821L119.926 15.1786C119.77 14.8004 119.523 14.4997 119.184 14.2766C118.854 14.0535 118.48 13.942 118.063 13.942C117.704 13.942 117.418 14.0293 117.205 14.2039C116.991 14.3687 116.885 14.587 116.885 14.8586C116.885 15.0429 116.933 15.198 117.03 15.3241C117.127 15.4405 117.253 15.5375 117.409 15.6151C117.564 15.683 117.724 15.7412 117.889 15.7897L119.169 16.168C119.819 16.3523 120.318 16.6433 120.668 17.0409C121.017 17.4289 121.191 17.8945 121.191 18.4376C121.191 18.9032 121.065 19.3154 120.813 19.6743C120.571 20.0235 120.231 20.2999 119.795 20.5036C119.358 20.6976 118.849 20.7946 118.267 20.7946ZM128.243 20.7946C127.458 20.7946 126.759 20.6152 126.148 20.2563C125.547 19.8877 125.077 19.393 124.737 18.7723C124.398 18.1418 124.228 17.4386 124.228 16.6627C124.228 15.8673 124.398 15.1641 124.737 14.553C125.086 13.942 125.552 13.4619 126.134 13.1127C126.716 12.7538 127.375 12.5744 128.113 12.5744C128.704 12.5744 129.233 12.6762 129.698 12.8799C130.164 13.0836 130.557 13.3649 130.877 13.7237C131.197 14.0729 131.439 14.4754 131.604 14.9313C131.779 15.3872 131.866 15.8722 131.866 16.3862C131.866 16.5123 131.861 16.6433 131.852 16.779C131.842 16.9148 131.823 17.0409 131.793 17.1573H125.523V15.8479H130.862L130.077 16.4444C130.174 15.9691 130.14 15.5472 129.975 15.1786C129.82 14.8004 129.577 14.5045 129.247 14.2912C128.927 14.0681 128.549 13.9565 128.113 13.9565C127.676 13.9565 127.288 14.0681 126.949 14.2912C126.609 14.5045 126.347 14.8149 126.163 15.2223C125.979 15.62 125.906 16.1049 125.945 16.6772C125.896 17.2107 125.969 17.6762 126.163 18.0739C126.367 18.4716 126.648 18.782 127.007 19.0051C127.375 19.2281 127.792 19.3397 128.258 19.3397C128.733 19.3397 129.136 19.233 129.466 19.0196C129.805 18.8062 130.072 18.5298 130.266 18.1903L131.604 18.845C131.449 19.2136 131.207 19.5482 130.877 19.8489C130.557 20.1399 130.169 20.3727 129.713 20.5473C129.267 20.7121 128.777 20.7946 128.243 20.7946Z" fill="white"/>
</svg>
