<svg width="35" height="30" viewBox="0 0 35 30" fill="none" xmlns="http://www.w3.org/2000/svg">
<path d="M0.0907506 25.8681C0.0907506 25.369 0 15.341 0 15.341V12.9815C0 12.3916 0.544504 10.985 1.22513 10.259C1.79831 9.64761 6.41305 8.51962 6.4433 8.76162C5.49041 9.85063 4.58291 10.5766 4.2199 10.985C3.40877 11.8975 2.63177 12.5278 2.63177 13.1176C2.63177 16.4452 2.58639 23.6901 2.63177 24.9152C2.66552 25.8266 3.35777 26.4126 3.99303 26.5034C6.88192 26.5034 12.1152 26.703 12.6597 26.4126C13.3403 26.0496 21.273 17.9165 22.37 16.9292C23.2775 16.1124 22.9145 15.3926 22.5062 15.3864C16.5166 15.2957 13.3403 15.4318 11.9337 15.341C9.00125 15.1519 8.0573 11.5635 9.25657 10.259C11.843 7.44574 17.6886 1.75357 18.8761 0.684813C19.7836 -0.131942 22.338 -0.131942 23.2775 0.594063C24.0723 1.20822 26.2494 3.1929 27.0891 4.13334C28.2234 5.40385 34.3037 10.8943 34.3037 12.2555C34.3037 12.7442 34.3945 13.8437 34.3945 17.3829C34.3945 19.9239 34.4399 23.3725 34.4399 25.0967C34.4399 26.821 32.9425 28.3184 32.035 28.7721C31.1275 29.2259 29.2217 29.1805 29.2217 29.1805C29.2217 29.1805 30.1746 27.5016 30.7191 26.458C31.9442 25.8681 31.7627 24.9606 31.7627 24.3254C31.7627 22.8733 31.7174 18.1089 31.7174 16.3847C31.7174 16.3847 31.8011 12.9361 31.5812 12.5278C31.3613 12.1194 24.2758 5.22235 22.2793 3.08971C21.6836 2.4534 20.6911 2.5452 20.1013 3.08971C19.1181 4.11821 16.5439 6.88775 13.7033 9.48763C11.0262 11.9379 11.0716 12.4824 11.843 12.6185C12.6143 12.7546 13.2496 12.6908 14.1117 12.6908C17.1163 12.6653 22.2094 12.6309 22.9145 12.7093C24.9111 12.9311 26.6281 15.6587 25.0926 17.7913C24.2758 18.9257 20.4189 22.7372 17.0157 26.0042C15.1088 27.8349 13.8395 29.1805 12.8866 29.1805C9.9372 29.1805 4.08378 29.3711 2.99477 29.0444C1.27051 28.5271 0.0907506 26.3672 0.0907506 25.8681Z" fill="white"/>
<path d="M7.8046 7.44574L2.76794 8.67087L10.7086 0.73019C10.9627 0.476088 11.2985 0.231061 11.4346 0.140311C12.3119 0.0949354 14.139 0.00418472 14.4294 0.00418472C14.7198 0.00418472 14.7017 0.336937 14.6563 0.503313L7.8046 7.44574Z" fill="white"/>
<path d="M18.5132 28.8629C18.5132 28.7176 20.0257 27.2898 20.7819 26.5941L29.9024 26.5033L28.2235 29.1805H19.2846C19.0577 29.1805 18.5132 29.0444 18.5132 28.8629Z" fill="white"/>
</svg>
